<svg id="Page-4" xmlns="http://www.w3.org/2000/svg" viewBox="0 0 159.2637 172.2959"><title>partner</title><path d="M354.9209,359.4082a11.5523,11.5523,0,1,1,11.5225,11.5859,11.5545,11.5545,0,0,1-11.5225-11.5859m5.8965-5.65a8.0243,8.0243,0,1,0,5.6758-2.331,7.9817,7.9817,0,0,0-5.6758,2.331M473.98,370.8525l3.5332.0107.0273-11.1425a11.55,11.55,0,1,0-23.1005-.0547l-.03,11.14,3.5342.0088.0283-11.1406a8.0176,8.0176,0,0,1,16.0351.0381Zm-61.252-22.85a11.5568,11.5568,0,0,0-9.8037,5.3877,11.5529,11.5529,0,0,0-21.3545,6.09l-.0273,11.1406,3.54.01.0284-11.1387a8.0137,8.0137,0,1,1,16.0273.0362l-.0273,11.1406,3.5429.0088.0264-11.1406a8.0152,8.0152,0,1,1,16.03.041l-.0284,11.1435,3.5372.0069.0283-11.1416a11.5518,11.5518,0,0,0-11.52-11.584m38.1416,11.6465a11.5586,11.5586,0,1,0-3.5586,8.31l-.0068,2.8272,3.5391.0088.0263-11.1348Zm-5.9013,5.6562a8.0052,8.0052,0,1,1,2.3633-5.6631,7.9831,7.9831,0,0,1-2.3633,5.6631" transform="translate(-340.3183 -198.8798)" fill="#fff"/><path d="M368.6582,224.9917c-.0244,9.0986,2.58,12.811,2.5586,20.5576-.0176,7.4785-3.8174,13.2309-10.5576,13.2143-8.8887-.0215-11.6133-10.3237-12.1631-17.145.582,1.5386,3.31,4.6694,8.0537,4.6826a7.52,7.52,0,0,0,7.6211-7.7085c.0068-2.957-1.7744-8.977-9.1729-8.9936-10.9072-.03-14.6611,11.831-14.68,19.4419-.0371,14.624,10.4023,22.98,21.333,23.01,6.8535.0171,21.3916-4.1714,21.4414-23.1772.0224-9.3189-5.1875-18.5064-5.1651-27.4536.02-7.9639,4.8389-17.4014,11.1885-18.26-7.9873-2.3784-20.417,5.5405-20.458,21.8311" transform="translate(-340.3183 -198.8798)" fill="#fff"/><path d="M430.4336,295.5986c-3.4023,2.1289-9.5908,5.3359-15.9424,5.3183-9.2607-.02-16.8369-10.0253-16.8174-19.2514.0625-23.854,21.5381-32.2891,21.5948-54.8277.0615-23.9565-25.22-26.0419-25.22-26.0419s13.6289,9.3378,13.5987,21.2646c-.0557,22.3828-28.2383,31.8809-28.3125,61.3115-.0459,18.7295,16.9726,26.7032,29.4707,26.7354,12.6123.0332,24.0644-6.5625,28.8935-9.78a51.5935,51.5935,0,0,0-7.2656-4.7285" transform="translate(-340.3183 -198.8798)" fill="#fff"/><path d="M499.582,291.0063c-37.74-16.36-66.3828-27.0122-66.2949-61.6885a27.77,27.77,0,0,1,.8-7.02c11.0488,4.2564,10.376,27.4453,10.6553,29.6182,2.9414-3.898,7.27-10.959,7.2861-17.5689.0391-15.9966-14.9687-26.1225-18.5332-35.4673,0,0-9.625,23.333-9.6689,41.148-.0869,35.2031,40.7793,52.3672,57.1289,61.2368,6.3222-5.1958,15.6572-9.1816,18.6269-10.2583" transform="translate(-340.3183 -198.8798)" fill="#fff"/><path d="M380.8633,298.8833c-5.1016,3.4184-10.082,5.8559-15.1641,5.8452-6.0654-.0157-10.7051-3.0567-14.1113-5.7486-11.4707,6.8091-6.4424,20.5093,7.1465,20.5454,8.8047.0206,18.18-7.1015,27.7011-14.4472a27.7577,27.7577,0,0,1-5.5722-6.1948" transform="translate(-340.3183 -198.8798)" fill="#fff"/><path d="M421.0518,277.7812c-7.3858-.0185-14.0391,2.8486-20.2432,6.708a18.7225,18.7225,0,0,0,3.7773,8.1524,26.9127,26.9127,0,0,1,12.086-3.3492c6.6767.0161,20.497.022,47.3242,34.4888l.0117-.0273c1.95-6.3037,6.2363-12.7823,12.33-18.5411-34.49-18.5888-40.2285-27.393-55.2861-27.4316" transform="translate(-340.3183 -198.8798)" fill="#fff"/><path d="M397.0889,334.1074l-.0118,4.6777c-.0322,1.332-.59,1.8506-1.6806,1.8779-1.1035-.0332-1.6514-.5546-1.6826-1.8837l.0136-4.6788-1.57-.0058-.0117,4.7871a3.4527,3.4527,0,0,0,.8486,2.4267,3.2076,3.2076,0,0,0,2.3985.9219h.0137a3.1533,3.1533,0,0,0,2.38-.914,3.401,3.401,0,0,0,.8614-2.4161l.0107-4.79Zm5.6552,6.5556.0157-6.541-1.5664-.0029-.0235,8.0264,4.78.01.0039-1.4814Zm3.06-6.5332L405.8,335.622l2.2227.0059-.0147,6.5342,1.5625.0009.0156-6.5322,2.2325.0059v-1.4912Zm32.8408.083-.0039,1.4922,2.2266.0049-.0156,6.5332,1.5576.0059.0176-6.5332,2.2295.0029.0048-1.49Zm-22.4951-.1533a2.866,2.866,0,0,0-2.3789,1.1475,3.9854,3.9854,0,0,0-.75,2.3838l-.0107,4.584,1.5644.0029.0069-2.5264,3.0966.0088-.0088,2.5293h1.5655l.0107-4.584a3.9939,3.9939,0,0,0-.7295-2.3847,2.8351,2.8351,0,0,0-2.3662-1.1612m1.5313,4.11-3.0967-.0078.0019-.5928c.0313-1.2012.5909-1.9414,1.5577-1.9473.9755.0117,1.5224.7461,1.5371,1.958Zm9.4384-3.9854-.0146,5.1778-3.9668-5.1875-1.3027-.003-.0215,8.0244,1.5019.003.0157-5.1826,3.9609,5.1933,1.31.0029.0185-8.0253Zm7.1954-.0781a2.8577,2.8577,0,0,0-2.3741,1.1475,3.99,3.99,0,0,0-.7441,2.3808l-.0117,4.584,1.5625.0059.0049-2.5293,3.0888.0088-.0058,2.5293,1.5615.0009.0146-4.584a4.0387,4.0387,0,0,0-.7236-2.3867,2.86,2.86,0,0,0-2.373-1.1572m1.5322,4.1074-3.0889-.0058.001-.5928c.0273-1.2061.58-1.9434,1.5527-1.9434.9717.0088,1.5225.7461,1.5362,1.9522Zm-48.2461-.9375a8.7476,8.7476,0,0,1-1.1836-.4375c-.3027-.17-.415-.2978-.4277-.5771a.5645.5645,0,0,1,.1845-.45,1.6471,1.6471,0,0,1,1.1055-.2715,2.2517,2.2517,0,0,1,1.3311.4678l.0039.0029.3359.2129.87-1.3359-.31-.2a.095.095,0,0,0-.0264-.0137,3.8762,3.8762,0,0,0-2.1992-.6778,3.3284,3.3284,0,0,0-2.1006.5977,2.0629,2.0629,0,0,0-.78,1.668c-.0019,1.5449,1.2979,2.0586,2.2276,2.3926.497.1835.9834.2978,1.3066.4609.335.1767.4609.2978.4658.6269-.0322.4913-.1972.8907-1.251.9209a2.1649,2.1649,0,0,1-1.5537-.5791l-.0048-.0029c-.0059-.0049-.0059-.0078-.0108-.0078l-.0049-.0029-.3164-.2442-.9707,1.2754.3115.2354a3.8325,3.8325,0,0,0,2.5235.873h.0244a3.0682,3.0682,0,0,0,2.0391-.6533,2.2923,2.2923,0,0,0,.8-1.8115c-.0118-1.7852-1.751-2.2422-2.3887-2.4688" transform="translate(-340.3183 -198.8798)" fill="#fff"/></svg>
